<?xml version="1.0" standalone="no"?>
<!DOCTYPE svg PUBLIC "-//W3C//DTD SVG 20010904//EN"
 "http://www.w3.org/TR/2001/REC-SVG-20010904/DTD/svg10.dtd">
<svg version="1.0" xmlns="http://www.w3.org/2000/svg"
 width="260.000000pt" height="260.000000pt" viewBox="0 0 260.000000 260.000000"
 preserveAspectRatio="xMidYMid meet">
<metadata>
Created by potrace 1.14, written by Peter Selinger 2001-2017
</metadata>
<g transform="translate(0.000000,260.000000) scale(0.100000,-0.100000)"
fill="#000000" stroke="none">
<path d="M1292 2413 c-13 -3 -26 -12 -29 -21 -8 -22 -24 -32 -38 -24 -16 10
-36 11 -29 1 3 -5 1 -9 -5 -9 -5 0 -11 -8 -13 -17 -3 -15 -4 -15 -21 1 -9 10
-15 21 -13 25 3 4 -4 8 -15 8 -26 2 -41 -35 -26 -62 6 -11 12 -22 12 -25 0 -3
6 -15 13 -27 11 -19 10 -23 -2 -23 -8 0 -18 -5 -22 -12 -4 -6 -3 -8 3 -5 5 3
10 0 10 -8 0 -18 1 -17 -30 -6 -14 6 -28 7 -32 3 -3 -3 -21 -5 -39 -4 -24 2
-35 -2 -40 -13 -4 -13 -10 -14 -19 -7 -8 7 -17 7 -27 -1 -17 -13 -24 -50 -8
-41 6 4 8 1 6 -7 -3 -8 -12 -13 -22 -11 -9 2 -16 -3 -17 -10 0 -7 -4 -4 -8 7
-5 12 -4 26 3 34 13 17 8 63 -8 73 -14 10 -36 -19 -36 -47 0 -30 -8 -35 -37
-22 -19 9 -26 8 -33 -4 -6 -8 -6 -15 0 -17 16 -6 11 -32 -10 -59 -11 -14 -20
-33 -20 -42 0 -13 -2 -13 -9 -2 -5 7 -6 21 -4 32 4 15 0 18 -31 16 -30 -2 -36
-6 -36 -24 0 -26 -25 -31 -34 -8 -8 21 -29 19 -44 -5 -10 -16 -10 -20 0 -20
10 0 10 -2 1 -8 -8 -5 -3 -15 18 -31 16 -13 26 -27 23 -32 -3 -5 -1 -9 5 -9 5
0 8 -8 7 -17 -2 -10 -7 -17 -12 -15 -5 2 -8 10 -6 18 2 8 -2 14 -9 14 -6 0 -8
7 -5 16 4 10 2 13 -7 7 -6 -4 -22 -6 -34 -5 -28 4 -41 -18 -20 -33 9 -7 14
-14 12 -17 -3 -3 1 -11 10 -18 8 -7 15 -19 15 -27 0 -8 5 -11 11 -7 6 3 8 17
4 31 -4 16 -2 22 5 18 24 -15 -1 -98 -27 -88 -12 5 -12 7 -1 14 9 6 5 9 -13 9
-15 0 -32 -7 -39 -15 -9 -11 -9 -15 -1 -15 7 0 9 -5 4 -12 -4 -7 -8 -20 -8
-28 -4 -43 -6 -50 -16 -50 -5 0 -8 4 -5 8 7 11 -43 7 -54 -4 -7 -7 -3 -17 9
-31 14 -15 16 -24 9 -31 -8 -8 -4 -10 15 -6 22 3 28 0 33 -21 3 -14 10 -25 15
-25 6 0 4 -6 -3 -14 -7 -8 -17 -11 -22 -6 -16 15 -45 -8 -39 -30 4 -16 0 -23
-16 -27 -11 -3 -18 -9 -15 -14 3 -5 0 -9 -5 -9 -6 0 -10 -3 -10 -7 1 -5 1 -20
0 -36 -1 -24 -4 -27 -27 -23 -28 5 -46 -20 -24 -34 7 -4 10 -14 7 -22 -4 -11
1 -14 19 -10 14 2 24 0 24 -7 0 -7 4 -10 8 -7 5 3 16 -4 25 -15 21 -23 21 -29
3 -29 -8 0 -17 -7 -20 -16 -3 -8 -10 -13 -15 -10 -17 11 1 -68 19 -84 22 -19
26 -36 10 -42 -14 -4 -22 -48 -9 -48 6 0 8 -4 4 -10 -3 -5 9 -13 27 -18 24 -6
34 -15 36 -31 2 -14 0 -21 -6 -17 -6 4 -13 2 -17 -4 -4 -6 -12 -7 -18 -4 -8 5
-8 3 1 -7 14 -16 16 -43 2 -34 -14 9 -12 -8 5 -41 8 -16 20 -29 27 -29 7 0 12
-9 11 -18 0 -10 1 -16 4 -13 9 8 43 -13 43 -27 0 -8 -3 -7 -9 2 -13 21 -44 5
-38 -19 3 -12 -4 -29 -19 -45 -31 -34 -31 -49 1 -43 14 3 25 2 25 -2 0 -4 7
-7 15 -7 8 0 15 3 15 7 0 4 11 5 25 2 25 -4 25 -5 8 -25 -10 -11 -12 -17 -4
-12 7 4 16 3 20 -4 4 -6 19 -12 34 -13 15 -1 27 -6 27 -11 0 -5 11 -18 25 -28
26 -21 24 -51 -3 -47 -20 4 -29 -32 -10 -43 7 -5 13 -14 13 -20 0 -12 16 -23
47 -33 10 -3 20 -20 24 -40 3 -20 12 -36 20 -36 7 0 16 -5 20 -12 4 -6 3 -8
-3 -5 -15 9 -36 -20 -29 -39 3 -8 10 -12 16 -9 6 4 26 -3 45 -15 19 -12 40
-18 46 -14 8 4 9 3 5 -4 -4 -7 -13 -12 -20 -12 -7 0 -12 -10 -11 -22 1 -17 10
-24 33 -29 19 -4 33 -2 37 5 3 6 3 1 1 -11 -3 -17 0 -21 18 -17 45 10 86 12
91 3 3 -4 13 -5 22 -2 10 4 14 2 10 -4 -5 -7 0 -9 12 -6 13 3 23 -2 31 -17 6
-12 17 -19 23 -17 7 2 26 -2 42 -10 25 -12 27 -12 13 0 -15 12 -16 16 -4 32
13 18 14 18 20 -2 9 -29 27 -33 67 -15 45 20 50 21 74 7 30 -18 64 -24 71 -14
4 6 10 6 17 1 7 -5 21 -6 32 -2 11 4 26 5 33 3 6 -3 12 0 12 7 0 7 7 10 14 7
10 -4 13 -1 9 9 -3 7 -10 14 -16 14 -6 0 -8 2 -5 5 3 4 23 -5 43 -20 55 -36
75 -34 75 11 0 19 4 33 9 29 5 -3 12 -1 16 5 4 6 12 7 18 3 7 -4 6 0 -2 10
-12 15 -10 17 18 17 17 0 31 -5 31 -11 0 -6 7 -9 15 -6 8 4 17 2 20 -3 3 -4
13 -7 23 -5 9 2 22 4 28 4 21 2 25 32 6 49 -10 10 -12 13 -5 8 8 -5 13 -5 13
1 0 5 11 15 25 21 15 7 25 8 25 2 0 -6 5 -10 11 -10 5 0 7 6 3 13 -5 8 -2 8 9
-2 15 -12 17 -11 17 3 0 9 5 16 11 16 5 0 7 6 3 13 -5 8 -2 8 9 -2 12 -9 17
-10 17 -2 0 7 8 11 18 10 50 -5 62 1 62 29 0 34 31 67 46 52 7 -7 10 -4 9 9
-1 22 -15 42 -15 23 0 -7 -5 -12 -10 -12 -6 0 -5 8 2 20 9 14 14 16 20 7 4 -7
8 -8 8 -3 0 5 10 1 22 -10 12 -10 18 -13 13 -5 -6 11 -4 13 11 7 18 -7 18 -6
-1 12 -11 11 -23 18 -27 15 -9 -5 -48 19 -48 30 0 4 4 6 9 2 16 -10 23 15 9
33 -11 15 -11 15 2 5 10 -8 21 -9 30 -3 17 11 21 60 5 60 -5 0 -3 4 5 9 8 6
17 8 21 5 4 -2 10 0 14 5 3 6 13 7 22 4 12 -5 14 -3 8 7 -6 9 -4 11 5 5 10 -6
10 -11 -3 -20 -9 -7 -14 -15 -10 -18 8 -9 32 24 33 45 0 9 -5 18 -12 20 -7 3
-5 7 6 11 9 4 15 3 11 -2 -3 -5 0 -13 6 -17 8 -4 9 -3 5 4 -4 7 -1 12 6 12 10
0 9 3 -2 9 -8 6 -17 8 -21 5 -4 -2 -11 1 -15 7 -4 7 -3 9 4 5 5 -3 13 0 16 6
5 10 7 10 12 1 3 -7 11 -13 17 -13 8 0 7 4 -1 12 -7 7 -12 20 -12 31 0 11 -5
17 -12 14 -7 -2 -12 -10 -10 -16 1 -7 -3 -9 -9 -6 -8 5 -8 10 0 18 15 15 14
30 -1 21 -7 -4 -8 -3 -4 4 5 9 18 4 42 -14 41 -32 45 -23 7 13 -16 14 -19 19
-9 12 17 -12 19 -12 14 2 -4 9 1 27 10 40 14 21 14 22 -2 16 -10 -4 -15 -3
-11 3 3 6 13 10 21 10 8 0 14 4 14 10 0 5 -6 8 -12 6 -7 -1 -10 -1 -5 1 4 3
-3 13 -15 24 -21 17 -16 25 15 20 4 0 7 4 7 10 0 5 5 7 11 3 8 -4 7 -9 -2 -15
-11 -7 -11 -9 1 -9 12 0 12 -2 1 -9 -9 -6 -10 -11 -2 -15 6 -4 11 -2 11 4 0 6
4 9 8 6 12 -7 9 57 -2 65 -5 4 -5 15 -1 25 12 28 12 38 2 52 -6 8 -5 12 4 12
11 0 11 2 -1 10 -13 9 -13 10 0 10 13 0 13 1 0 10 -8 5 -10 10 -5 10 6 0 11 9
11 20 0 25 -14 12 -19 -17 -4 -29 -10 -34 -41 -37 -21 -3 -24 0 -15 10 6 7 16
12 22 10 7 -1 8 -1 4 2 -4 2 -1 9 8 16 16 12 12 46 -7 46 -5 0 -7 -4 -3 -9 3
-5 1 -12 -5 -16 -6 -4 -8 -10 -5 -15 3 -4 -2 -10 -10 -14 -8 -3 -17 0 -21 6
-5 7 -2 8 6 3 10 -6 12 -3 8 13 -4 16 -2 19 10 15 10 -4 13 -2 8 5 -4 7 0 15
10 19 16 6 16 7 -2 14 -17 7 -17 8 -1 8 10 1 22 -9 28 -21 8 -20 9 -19 4 6 -6
27 -5 28 12 15 16 -13 17 -12 5 3 -8 10 -17 16 -20 15 -7 -2 -12 7 -12 18 0 3
8 1 18 -4 15 -8 18 -5 17 20 0 16 -3 29 -7 29 -5 0 -8 -7 -8 -16 0 -9 -6 -14
-12 -11 -7 2 -13 8 -13 13 0 5 -4 15 -9 23 -6 10 -5 12 2 7 18 -11 14 3 -7 26
-11 11 -17 27 -13 37 5 14 4 14 -13 1 -14 -11 -17 -11 -11 -1 5 7 12 28 16 46
6 25 4 32 -5 29 -7 -3 -16 0 -21 7 -4 8 -3 10 4 5 7 -4 19 -3 28 2 15 8 15 10
0 15 -11 5 -15 3 -10 -5 4 -7 3 -8 -5 -4 -6 4 -8 13 -4 19 11 18 12 56 2 62
-5 3 -6 0 -3 -8 3 -8 1 -17 -4 -21 -5 -3 -8 5 -7 17 2 12 8 21 14 20 6 -2 11
2 11 8 0 5 5 7 12 3 7 -4 8 -3 4 5 -4 6 -12 9 -17 6 -17 -11 -31 6 -18 21 6 7
15 12 19 9 5 -3 11 -1 15 4 3 6 -3 8 -15 6 -11 -2 -20 0 -20 6 0 5 6 9 13 9 8
0 7 4 -3 10 -10 7 -11 13 -5 18 25 18 10 37 -30 37 -46 0 -69 11 -61 30 6 17
-13 35 -38 35 -17 0 -18 2 -6 10 12 8 11 10 -7 10 -15 0 -23 6 -23 16 0 14 2
15 17 3 15 -13 15 -12 5 8 -7 12 -9 29 -6 37 4 12 0 16 -16 16 -14 0 -19 4
-14 13 4 6 -2 4 -13 -5 -11 -10 -23 -18 -28 -18 -5 0 0 7 11 16 15 12 15 15 2
10 -16 -5 -34 18 -29 38 1 5 -4 4 -13 -3 -11 -9 -16 -9 -22 0 -4 7 -3 9 4 5
19 -12 26 34 6 48 -13 10 -14 15 -4 21 9 6 11 4 5 -5 -5 -9 -4 -11 4 -6 6 4 9
12 5 17 -3 5 -10 6 -16 3 -8 -5 -9 -1 -5 10 4 9 3 15 -2 12 -4 -3 -17 1 -27 9
-18 13 -18 14 -1 21 14 5 16 9 6 15 -7 4 -13 20 -14 36 0 22 -4 27 -20 25 -11
-2 -25 -4 -32 -4 -6 -1 -9 -7 -6 -14 3 -9 -3 -11 -24 -5 -19 5 -31 3 -38 -6
-9 -12 -15 -11 -34 6 -29 25 -30 25 -54 4 -18 -17 -20 -17 -33 2 -8 11 -17 19
-19 18 -3 -2 -11 -3 -17 -3 -9 0 -8 4 2 10 11 7 11 10 2 10 -7 0 -10 5 -7 10
3 6 0 10 -7 10 -10 0 -10 2 1 9 8 5 11 16 7 26 -6 16 -4 16 11 4 9 -8 14 -9
10 -2 -4 6 -4 19 -1 28 5 13 9 14 15 3 6 -9 8 -6 6 9 0 12 -5 19 -9 17 -4 -3
-8 -1 -8 5 0 5 5 13 10 16 14 8 -10 32 -32 32 -10 0 -20 -8 -23 -18 -5 -14
-12 -16 -33 -10 -31 9 -50 5 -74 -16 -15 -13 -16 -13 -12 4 5 18 -17 49 -59
82 -15 12 -17 12 -12 -2 4 -8 2 -18 -4 -21 -13 -9 -53 12 -46 23 4 7 -22 25
-28 20 -1 -1 -12 -4 -25 -6z m-18 -460 c-6 16 -1 18 37 16 24 -2 47 -7 51 -13
5 -7 8 -6 8 2 0 7 5 10 10 7 6 -4 23 -9 38 -11 36 -6 82 -27 82 -36 0 -5 3 -7
8 -6 14 4 52 -14 52 -24 0 -6 3 -9 6 -6 3 4 14 -1 24 -10 10 -9 32 -28 48 -42
17 -14 28 -29 24 -34 -3 -5 -1 -6 5 -3 9 6 73 -63 73 -78 0 -3 12 -24 26 -47
21 -33 23 -42 12 -50 -10 -7 -9 -8 5 -4 17 5 25 -3 31 -36 3 -15 14 -44 27
-73 15 -33 25 -97 24 -152 0 -28 3 -49 8 -46 4 2 7 0 7 -6 0 -5 -6 -11 -12
-14 -10 -3 -10 -8 -2 -18 5 -8 9 -23 8 -34 -1 -11 -5 -51 -9 -90 -3 -38 -11
-75 -17 -82 -6 -7 -8 -13 -5 -13 3 0 0 -12 -8 -27 -8 -15 -12 -30 -9 -35 3 -4
0 -8 -7 -8 -7 0 -10 -3 -6 -6 8 -9 -14 -65 -23 -59 -5 3 -12 0 -16 -6 -4 -8
-3 -9 4 -5 18 11 14 -6 -8 -34 -11 -14 -20 -31 -20 -38 0 -7 -4 -11 -9 -7 -5
3 -13 -5 -17 -17 -8 -28 -104 -129 -115 -123 -4 3 -11 0 -15 -6 -5 -8 -2 -10
7 -5 8 4 1 -4 -16 -18 -27 -24 -46 -31 -68 -27 -5 1 -6 -3 -3 -8 7 -11 -78
-46 -92 -37 -6 3 -12 2 -14 -3 -1 -5 -28 -12 -58 -15 -46 -5 -79 -2 -175 18
-5 1 -17 6 -25 11 -8 5 -36 20 -62 32 -26 12 -57 33 -69 47 -13 14 -28 26 -34
26 -15 0 -46 55 -37 66 4 5 3 6 -2 2 -8 -7 -27 10 -67 60 -6 7 -8 19 -5 27 3
8 0 14 -7 12 -7 -1 -11 4 -10 11 2 6 -2 12 -8 12 -5 0 -7 5 -4 10 3 6 0 10 -7
10 -9 0 -9 3 2 10 13 8 13 10 -2 10 -10 0 -19 12 -24 33 -10 39 -9 39 -17 57
-22 57 -26 101 -13 119 9 12 8 13 -3 6 -11 -6 -13 -4 -8 8 4 10 1 17 -6 17 -8
0 -6 4 3 10 8 5 10 10 3 10 -13 0 -10 211 4 233 4 6 8 24 9 39 2 32 54 172 66
176 4 2 8 12 8 23 0 10 7 19 15 19 9 0 12 6 9 15 -4 8 1 17 10 21 9 3 16 13
16 20 0 8 7 17 15 20 8 4 15 10 15 15 0 15 33 48 42 43 4 -3 8 1 8 8 1 31 151
120 224 132 16 3 31 7 34 10 3 3 11 -2 19 -12 12 -16 13 -16 7 1z m-787 -249
c-3 -3 -12 -4 -19 -1 -8 3 -5 6 6 6 11 1 17 -2 13 -5z m1763 -504 c0 -5 -5
-10 -11 -10 -5 0 -7 5 -4 10 3 6 8 10 11 10 2 0 4 -4 4 -10z m19 -74 c10 -6 9
-20 -3 -48 -4 -9 -2 -27 4 -40 11 -22 10 -22 -4 -4 -9 11 -16 14 -16 8 0 -7
-4 -12 -8 -12 -5 0 -9 7 -9 15 0 8 4 12 9 9 4 -3 8 4 8 15 0 12 5 21 11 21 5
0 8 4 4 10 -3 5 -11 8 -18 6 -7 -1 -9 -1 -4 1 15 9 6 22 -13 18 -11 -2 -18 0
-15 5 5 9 37 6 54 -4z"/>
<path d="M1971 1954 c0 -11 3 -14 6 -6 3 7 2 16 -1 19 -3 4 -6 -2 -5 -13z"/>
<path d="M1995 1961 c-3 -5 -2 -12 3 -15 5 -3 9 1 9 9 0 17 -3 19 -12 6z"/>
<path d="M2124 1782 c3 -5 1 -12 -6 -14 -8 -3 -9 -6 -1 -11 6 -4 13 0 17 8 3
8 0 17 -6 21 -6 4 -8 3 -4 -4z"/>
<path d="M2236 1525 c25 -19 34 -19 34 3 0 13 -2 14 -9 3 -6 -9 -11 -10 -15
-2 -4 6 -12 11 -19 11 -6 0 -2 -7 9 -15z"/>
<path d="M2230 1490 c0 -5 5 -10 11 -10 5 0 7 5 4 10 -3 6 -8 10 -11 10 -2 0
-4 -4 -4 -10z"/>
<path d="M2268 1493 c7 -3 16 -2 19 1 4 3 -2 6 -13 5 -11 0 -14 -3 -6 -6z"/>
<path d="M2240 1466 c0 -2 7 -7 16 -10 8 -3 12 -2 9 4 -6 10 -25 14 -25 6z"/>
<path d="M2235 1440 c-8 -13 4 -32 15 -25 5 3 11 -2 13 -10 3 -11 4 -10 3 2
-1 10 -8 17 -15 15 -9 -2 -11 3 -8 13 7 17 2 20 -8 5z"/>
<path d="M2220 1406 c0 -2 7 -9 15 -16 9 -7 15 -8 15 -2 0 5 -7 12 -15 16 -8
3 -15 4 -15 2z"/>
<path d="M2272 1381 c-11 -7 -11 -9 0 -14 9 -3 15 1 15 9 0 8 -1 14 -1 14 -1
0 -7 -4 -14 -9z"/>
<path d="M2230 1000 c0 -5 5 -10 11 -10 5 0 7 5 4 10 -3 6 -8 10 -11 10 -2 0
-4 -4 -4 -10z"/>
<path d="M2270 960 c0 -19 -3 -25 -19 -37 -9 -7 -11 -13 -6 -13 6 0 3 -5 -5
-10 -12 -8 -12 -10 -1 -10 11 0 11 -3 1 -15 -9 -10 -9 -15 -1 -15 6 0 11 5 11
11 0 5 6 7 13 3 9 -6 9 -5 0 7 -9 11 -8 19 4 34 15 20 15 20 8 -2 -3 -13 -2
-23 2 -23 5 0 9 18 9 40 0 22 -4 40 -8 40 -4 0 -8 -4 -8 -10z"/>
<path d="M2260 856 c0 -2 7 -7 16 -10 8 -3 12 -2 9 4 -6 10 -25 14 -25 6z"/>
<path d="M2256 821 c-3 -5 2 -15 12 -22 15 -13 16 -12 4 3 -11 14 -10 17 5 21
16 4 16 5 1 6 -9 0 -19 -3 -22 -8z"/>
<path d="M2255 761 c-3 -5 -2 -12 3 -15 5 -3 9 1 9 9 0 17 -3 19 -12 6z"/>
<path d="M2135 710 c-4 -6 -11 -7 -17 -4 -7 5 -7 1 0 -11 5 -10 17 -20 26 -21
9 -1 14 2 10 7 -3 5 -10 7 -15 4 -13 -9 -11 9 3 23 7 7 9 12 6 12 -4 0 -10 -5
-13 -10z"/>
<path d="M2105 638 c-25 -15 -45 -40 -38 -51 3 -4 10 -3 17 2 7 6 17 7 22 3 4
-4 3 1 -4 10 -11 14 -10 18 6 27 11 6 23 7 27 3 5 -4 5 -1 1 6 -8 14 -6 14
-31 0z"/>
<path d="M2076 515 c4 -8 8 -15 10 -15 2 0 4 7 4 15 0 8 -4 15 -10 15 -5 0 -7
-7 -4 -15z"/>
<path d="M2031 496 c-16 -19 6 -34 22 -16 9 10 9 11 -2 5 -11 -6 -13 -4 -8 8
8 21 3 22 -12 3z"/>
</g>
</svg>
